<svg version="1" xmlns="http://www.w3.org/2000/svg" width="682.667" height="682.667" viewBox="0 0 512.000000 512.000000"><path d="M425.8 85.7l-4.7 4.6 6 7.3c20.5 25.1 37.7 59.3 45.8 91.2 4.6 17.7 6.3 31.1 6.8 52.8.6 21.3-.2 33.3-3.3 50.4-6.3 34.4-21 68.7-41.5 96.7-21.7 29.6-48.9 52.4-81.7 68.8l-13 6.5H171.8l-13.1-6.6c-20.5-10.3-34.2-19.6-51.5-35.3l-9.4-8.4-5.1 5.1-5.1 5.2 4.4 4.6c17.3 17.8 46.8 37.5 72.2 48.3l9.7 4.1h164.2l9.7-4.1c27.9-11.9 51.2-27.9 74.8-51.4 21-20.9 34.5-39.6 46.9-65 15.2-30.8 22.8-59.4 25.7-95.9 4-52.2-11.4-110.7-40.9-154.9-8.6-12.9-21.1-28.7-22.7-28.7-.6 0-3.2 2.1-5.8 4.7z"/><path d="M243.4 257.9c-4.3 1.9-6.3 4.3-10.3 12.3-2.2 4.4-2.7 4.8-9.5 6.8-25.4 7.7-45.3 23.6-56 44.7-3.2 6.5-3.2 7.1 0 13.6 8.8 17.3 24.9 31.7 45.1 40.1 4.3 1.8 9.9 3.8 12.6 4.6 4.3 1.1 5 1.8 7.8 6.9 4 7.4 4.8 8.5 8.9 11 3.3 2 4.8 2.1 27.3 2.1 31.7 0 32.8-.4 33-13.7.2-9 1.9-12.2 8.6-16.3 2.3-1.4 7.4-4.9 11.3-7.7 8.5-6.3 12.6-7.4 17.6-4.7 1.9 1 8.5 6.9 14.6 13.1 6.2 6.2 12.5 11.7 14 12.3 1.5.5 10.1 1 19.2 1 18.2 0 20.1-.5 24.8-6.1 2.1-2.5 2.6-3.8 2.1-6.3-1-4.6-7.8-17.9-14.7-28.4-9.2-13.9-9.1-17.4.5-31.6 6.5-9.7 13.7-24.3 13.7-28 0-1.9-.9-4.5-2.2-6.1-3.7-4.7-7.2-5.5-25-5.5-19.4 0-19-.1-31 12.5-4.4 4.7-10.2 10.1-12.9 12.1-7.4 5.4-10.8 4.7-24-4.7-5.7-4.1-11.1-8.8-12.2-10.6-1-1.8-2.2-6-2.7-9.3-1-7.1-4.1-11.9-9.3-14.4-2.9-1.3-7.1-1.6-25.4-1.6-19.1 0-22.3.3-25.9 1.9zm-26.6 48.8c9.7 7.2 9.6 19.5-.1 26.7-2.1 1.6-4.3 2.1-8.7 2.1-6.6 0-9.9-1.8-13.7-7.5-5.2-7.6-1.3-19.1 7.7-22.9 3.7-1.6 11.7-.7 14.8 1.6z"/><path d="M202.5 314.5c-5 4.9-1.5 13.5 5.5 13.5 1.9 0 4-.9 5.5-2.5 1.6-1.5 2.5-3.6 2.5-5.5s-.9-4-2.5-5.5c-1.5-1.6-3.6-2.5-5.5-2.5s-4 .9-5.5 2.5z"/></svg>